<svg width="25" height="30" viewBox="0 0 25 30" fill="none" xmlns="http://www.w3.org/2000/svg">
<rect width="25" height="30" fill="#F5F5F5"/>
<g clip-path="url(#clip0_0_1)">
<rect width="1440" height="998" transform="translate(-42 -36)" fill="white"/>
<rect width="300" height="998" transform="translate(-42 -36)" fill="#080325"/>
<path fill-rule="evenodd" clip-rule="evenodd" d="M24.9999 13.4373C24.9953 10.5131 24.0383 7.6699 22.2739 5.33796C20.5094 3.00601 18.0335 1.31218 15.2206 0.512729C12.4078 -0.286726 9.41108 -0.148301 6.68391 0.907054C3.95674 1.96241 1.64749 3.87727 0.105522 6.36194L1.50318 7.7596C1.89335 7.06707 2.35405 6.41673 2.87793 5.81892L2.86189 5.80288L3.35222 5.31255C4.9634 3.69201 7.0194 2.58626 9.25966 2.13543C11.4999 1.68459 13.8236 1.90896 15.9362 2.78012C18.0488 3.65127 19.8553 5.12999 21.1266 7.02887C22.398 8.92775 23.077 11.1613 23.0776 13.4465C23.0776 13.6756 23.0776 13.9047 23.057 14.1339V14.2301V14.3011V14.4432C23.057 14.489 23.057 14.5257 23.0455 14.5669L23.0249 14.7525C23.0249 14.7892 23.0249 14.8281 23.0111 14.8693C23.0019 14.8972 22.9988 14.9364 22.9957 14.9766V14.9766L22.9957 14.9767C22.9943 14.9961 22.9927 15.0157 22.9905 15.0343L22.9768 15.126C22.9768 15.1626 22.969 15.2026 22.9612 15.2428L22.9612 15.2429C22.9578 15.2605 22.9543 15.2781 22.9516 15.2955C22.9471 15.3235 22.9442 15.3394 22.942 15.3522L22.942 15.3522C22.9396 15.3655 22.9379 15.3753 22.9355 15.3917C22.9341 15.4014 22.9336 15.4104 22.9331 15.4191C22.9318 15.4394 22.9307 15.458 22.9195 15.4788C22.9087 15.4988 22.9062 15.527 22.9036 15.5559V15.556C22.9024 15.5701 22.9011 15.5844 22.8989 15.598C22.8954 15.6186 22.8914 15.6375 22.8874 15.6564C22.8834 15.6753 22.8794 15.6942 22.8759 15.7148L22.8484 15.85C22.782 16.1639 22.6995 16.4824 22.6193 16.7871C22.6147 16.8016 22.6104 16.8162 22.6061 16.8307C22.5974 16.8597 22.5888 16.8887 22.5781 16.9177C22.5679 16.9453 22.5624 16.9655 22.5568 16.9859C22.5535 16.9977 22.5502 17.0097 22.546 17.0231C22.4796 17.2248 22.4062 17.4287 22.3306 17.6257L22.2963 17.7082L22.2298 17.8182C22.2138 17.8548 22.1954 17.8984 22.1794 17.9396L22.1336 18.0427V18.0588L22.0717 18.2008C22.0557 18.2375 22.0396 18.2719 22.0213 18.3062C21.7279 18.9387 21.3775 19.543 20.9742 20.1117L20.9101 20.2011L20.7703 20.389L20.7565 20.4075C20.7396 20.4303 20.7213 20.455 20.7015 20.4783L20.5503 20.6731L20.4587 20.7831L20.3739 20.8862L20.28 20.9961C20.2677 21.0099 20.2558 21.0236 20.2438 21.0374C20.2199 21.0649 20.196 21.0924 20.17 21.1199L21.5264 22.4763C23.7713 20.0021 25.0102 16.7781 24.9999 13.4373ZM22.1565 23.5922C22.6797 22.9938 23.1403 22.3435 23.5313 21.6515L24.8877 23.0766C23.9026 24.6648 22.5975 26.0303 21.0555 27.0861C19.5135 28.142 17.7685 28.865 15.9316 29.2091C14.0948 29.5532 12.2063 29.5109 10.3867 29.0848C8.56712 28.6587 6.85623 27.8582 5.36311 26.7344C3.86998 25.6105 2.62737 24.1879 1.71447 22.5572C0.801565 20.9265 0.238397 19.1235 0.0608537 17.2631C-0.116689 15.4028 0.0952885 13.5258 0.683276 11.7519C1.27126 9.97796 2.22236 8.34599 3.47596 6.95998L4.83238 8.31641L4.7224 8.44013L4.72234 8.44019C4.69028 8.47454 4.65823 8.50889 4.62846 8.54781C4.61077 8.57095 4.59227 8.59247 4.57392 8.61382L4.5739 8.61384L4.57389 8.61385C4.56136 8.62843 4.54889 8.64293 4.53681 8.6578L4.5093 8.6921C4.48851 8.71817 4.46738 8.74467 4.44516 8.77007L4.29394 8.96253C4.26873 8.99232 4.24582 9.0244 4.2252 9.05418L4.08772 9.23978L4.02128 9.32914C3.61852 9.89817 3.26806 10.5025 2.97418 11.1346L2.92606 11.24C2.90315 11.2881 2.88254 11.3362 2.86192 11.3844L2.86191 11.3844V11.4004C2.85703 11.4109 2.85109 11.4213 2.84518 11.4317C2.83168 11.4555 2.81837 11.4789 2.81837 11.5012L2.76568 11.625C2.75422 11.657 2.74047 11.6914 2.72901 11.7189C2.72567 11.7269 2.72155 11.7351 2.71739 11.7434C2.70728 11.7636 2.69694 11.7842 2.69694 11.8037C2.61903 12.0007 2.54571 12.2046 2.48156 12.404C2.47324 12.4262 2.46743 12.445 2.4611 12.4656L2.4611 12.4656C2.45697 12.479 2.45262 12.4931 2.44719 12.5094C2.44315 12.5215 2.43831 12.5337 2.4335 12.5457C2.42195 12.5747 2.41053 12.6033 2.41053 12.6308C2.32805 12.9378 2.24556 13.254 2.18141 13.5679C2.16995 13.6138 2.15849 13.6665 2.15162 13.7054C2.14842 13.7235 2.14473 13.7406 2.14101 13.7579C2.13672 13.7778 2.13238 13.7979 2.12871 13.82C2.12643 13.8336 2.12516 13.8486 2.12389 13.8634C2.12134 13.8934 2.11881 13.923 2.10809 13.9414C2.10007 13.9552 2.10007 13.9683 2.10007 13.9821C2.10007 13.9958 2.10007 14.0102 2.09205 14.0262C2.08241 14.0455 2.08187 14.0565 2.08099 14.0746C2.0804 14.0867 2.07967 14.1019 2.07601 14.1247C2.07315 14.1426 2.06961 14.1605 2.06611 14.1783C2.05839 14.2173 2.05081 14.2557 2.05081 14.292L2.03706 14.3859C2.03472 14.4046 2.03159 14.4236 2.02847 14.4424C2.02243 14.4791 2.01644 14.5153 2.01644 14.5486C2.00727 14.5898 2.00269 14.6288 2.00269 14.6654L1.98207 14.851V14.9748L1.96832 15.1168C1.96946 15.1374 1.96946 15.1581 1.96832 15.1787V15.2749C1.9477 15.504 1.9477 15.7332 1.9477 15.9623V15.9623C1.94539 18.2496 2.62292 20.486 3.89423 22.3874C5.16555 24.2888 6.9733 25.7695 9.08788 26.6414C11.2025 27.5133 13.5285 27.7371 15.7705 27.2843C18.0125 26.8316 20.0694 25.7227 21.6799 24.0985L22.1703 23.6059L22.1565 23.5922ZM9.60107 25.3465C8.36966 24.8352 7.2519 24.0847 6.31251 23.1385L6.28043 23.276C5.33649 22.3317 4.5881 21.2105 4.07814 19.9766C3.56818 18.7427 3.30667 17.4203 3.30859 16.0852C3.3105 14.75 3.57581 13.4284 4.08931 12.1959C4.6028 10.9635 5.3544 9.84448 6.30105 8.90296C7.03567 8.17449 7.87611 7.56115 8.79393 7.08371L10.2328 8.5226C9.2743 8.93388 8.40149 9.52145 7.65976 10.2548C6.14739 11.7535 5.27451 13.7799 5.22439 15.9085C5.17428 18.0371 5.95082 20.1024 7.39098 21.6706C8.83114 23.2389 10.8229 24.1882 12.9481 24.3192C15.0732 24.4502 17.1665 23.7527 18.7884 22.3732L20.1448 23.7296L20.0898 23.7777L19.9088 23.9312L19.8125 24.0115L19.7163 24.0871L19.6934 24.1031L19.6361 24.1489L19.5422 24.2222L19.4551 24.2864L19.4047 24.3231L19.3337 24.3735H19.3199L19.226 24.4399C19.1114 24.5201 19.006 24.5888 18.9029 24.6553L18.6738 24.7973L18.534 24.8798L18.4699 24.9165C18.2659 25.031 18.0552 25.141 17.8421 25.2418L17.739 25.2923H17.7183L17.6496 25.322L17.5213 25.3793L17.3792 25.4412L17.2349 25.4985L17.1478 25.5328C17.1112 25.5489 17.0722 25.5626 17.031 25.5764L16.9508 25.6084H16.9324L16.866 25.6336L16.6117 25.7184L16.5292 25.7436L16.4146 25.7803L16.339 25.8032H16.3253L16.2657 25.8215L16.1878 25.8422L16.0893 25.8696L15.9655 25.9017H15.9197L15.741 25.943L15.4706 26.0003L15.3675 26.0186H15.3561L15.2759 26.0323H15.2644L15.1636 26.0484C15.0445 26.069 14.9207 26.0873 14.7947 26.1033H14.6939H14.6435H14.5656H14.4487L14.3113 26.1171H14.2769H14.2081H14.0592H13.8736H13.743H13.4864C12.1531 26.1197 10.8325 25.8577 9.60107 25.3465ZM16.2061 22.4649L14.7672 21.026C15.7454 20.5873 16.6293 19.9633 17.3701 19.1884C18.8824 17.6896 19.7553 15.6632 19.8054 13.5346C19.8555 11.406 19.079 9.34079 17.6388 7.77254C16.1987 6.20428 14.2069 5.255 12.0818 5.124C9.9566 4.99299 7.86333 5.69047 6.24147 7.06998L4.88505 5.71125L4.94004 5.66315L5.12105 5.50964L5.22644 5.42485L5.32268 5.34695L5.34559 5.33091L5.40287 5.28509L5.49681 5.21406L5.58388 5.14991L5.63199 5.11324L5.70531 5.06055L5.72364 5.0468L5.81071 4.98723C5.92527 4.90932 6.03067 4.8383 6.13378 4.77414L6.22772 4.71457L6.37436 4.6252L6.50725 4.54731L6.56912 4.51064C6.77304 4.39608 6.98383 4.2861 7.19692 4.18529L7.30231 4.13489H7.32064L7.38938 4.1051L7.51769 4.04782L7.65975 3.98825L7.8041 3.92867L7.89116 3.8943L8.01031 3.85076L8.08821 3.82097H8.10884L8.17299 3.79807L8.42732 3.711L8.5098 3.6858L8.62437 3.65142L8.69998 3.62852H8.71372L8.7733 3.61018L8.8512 3.58957L8.94972 3.56208L9.07345 3.53H9.11927L9.29799 3.48646L9.57065 3.42918L9.67147 3.41085H9.6875L9.76311 3.3971H9.77457L9.87539 3.37877C9.99682 3.35814 10.1183 3.34211 10.2443 3.32607L10.3428 3.31232H10.3565H10.3955H10.4734L10.5903 3.30087H10.7277H10.7621H10.8308H10.9798H11.1654H11.2914H11.5457C13.8194 3.30231 16.0268 4.06712 17.8141 5.47272C19.6013 6.87831 20.8648 8.84328 21.4021 11.0526C21.9394 13.262 21.7193 15.5877 20.7771 17.6571C19.8349 19.7264 18.2253 21.4195 16.2061 22.4649Z" fill="white"/>
</g>
<defs>
<clipPath id="clip0_0_1">
<rect width="1440" height="998" fill="white" transform="translate(-42 -36)"/>
</clipPath>
</defs>
</svg>
